<svg id="Calque_1" data-name="Calque 1" xmlns="http://www.w3.org/2000/svg" xmlns:xlink="http://www.w3.org/1999/xlink" viewBox="0 0 816.32 174.87"><defs><style>.cls-1{fill:#1f1f1f;}.cls-2{fill:url(#bisounours);}</style><linearGradient id="bisounours" x1="506.71" y1="120.98" x2="545.46" y2="120.98" gradientUnits="userSpaceOnUse"><stop offset="0.23" stop-color="#c1171c"/><stop offset="0.28" stop-color="#c3211b"/><stop offset="0.37" stop-color="#c83b18"/><stop offset="0.48" stop-color="#d16613"/><stop offset="0.51" stop-color="#d37012"/><stop offset="0.56" stop-color="#c67e23"/><stop offset="0.84" stop-color="#88c274"/></linearGradient></defs><title>dispo.me</title><g id="gris_gris"><path class="cls-1" d="M12.8,215.67H61.93q16.62,0,25.34,2.54a44.54,44.54,0,0,1,20.07,12.26A58.34,58.34,0,0,1,120.06,252q4.35,12.77,4.36,31.47,0,16.44-4.09,28.34-5,14.53-14.26,23.52-7,6.81-18.89,10.63-8.9,2.81-23.79,2.81H12.8Zm26.88,22.52v88.19H59.75q11.27,0,16.26-1.27a24.8,24.8,0,0,0,10.85-5.54q4.32-3.92,7-12.85t2.73-24.39q0-15.43-2.73-23.7t-7.63-12.9a25.54,25.54,0,0,0-12.44-6.27q-5.62-1.26-22.07-1.27Z" transform="translate(-12.8 -210.64)"/><path class="cls-1" d="M147,348.81V252.36h25.52v96.45Z" transform="translate(-12.8 -210.64)"/><path class="cls-1" d="M189.72,321.29l25.61-3.9q1.63,7.44,6.63,11.3t14,3.86q9.9,0,14.9-3.63a8.09,8.09,0,0,0,3.36-6.81,6.69,6.69,0,0,0-1.82-4.81c-1.27-1.21-4.12-2.33-8.53-3.36Q213,307.13,204.7,301.49q-11.44-7.8-11.44-21.7,0-12.54,9.9-21.07t30.7-8.54q19.78,0,29.42,6.45t13.26,19.07l-24.07,4.45a14.92,14.92,0,0,0-5.85-8.63q-4.32-3-12.31-3-10.08,0-14.44,2.81a6,6,0,0,0-2.91,5.18,5.64,5.64,0,0,0,2.55,4.63q3.45,2.55,23.84,7.18t28.47,11.35q8,6.81,8,19,0,13.26-11.08,22.79T235.94,351q-19.69,0-31.19-8A36.8,36.8,0,0,1,189.72,321.29Z" transform="translate(-12.8 -210.64)"/><path class="cls-1" d="M301.43,252.36h23.79v14.17a35.65,35.65,0,0,1,12.53-11.81,34.53,34.53,0,0,1,17.53-4.54q16.8,0,28.52,13.17T395.52,300q0,24.16-11.81,37.55T355.1,351a32.51,32.51,0,0,1-14.49-3.18q-6.48-3.18-13.66-10.9V385.5H301.43ZM326.67,299q0,16.26,6.45,24t15.71,7.77a18.46,18.46,0,0,0,14.81-7.13q5.89-7.12,5.9-23.39,0-15.17-6.08-22.52t-15.08-7.36a19.59,19.59,0,0,0-15.53,7.22Q326.67,284.79,326.67,299Z" transform="translate(-12.8 -210.64)"/><path class="cls-1" d="M409.87,299.22a52.15,52.15,0,0,1,6.26-24.61,43,43,0,0,1,17.76-18.16,52.66,52.66,0,0,1,25.65-6.27q21.9,0,35.88,14.21t14,35.92q0,21.9-14.12,36.29T459.73,351a56.1,56.1,0,0,1-25.3-6,41.17,41.17,0,0,1-18.3-17.58Q409.86,315.84,409.87,299.22ZM436,300.59q0,14.34,6.81,22a22.27,22.27,0,0,0,33.56,0q6.76-7.62,6.77-22.16,0-14.16-6.77-21.79a22.27,22.27,0,0,0-33.56,0Q436,286.23,436,300.59Z" transform="translate(-12.8 -210.64)"/><path class="cls-1" d="M579.15,252.36h23.53v13.17q12.62-15.34,30.06-15.35A32.3,32.3,0,0,1,648.81,254,29.22,29.22,0,0,1,660,265.53,44.43,44.43,0,0,1,673.7,254a33.55,33.55,0,0,1,15.71-3.82q10.62,0,18,4.32a26.34,26.34,0,0,1,11,12.66q2.64,6.18,2.64,20v61.67H695.5V293.68q0-14.34-2.64-18.52-3.54-5.46-10.9-5.45A17.4,17.4,0,0,0,671.88,273a18.1,18.1,0,0,0-6.81,9.58Q663,288.88,663,302.49v46.32H637.46V296q0-14.07-1.36-18.16a11.7,11.7,0,0,0-4.22-6.09,13.39,13.39,0,0,0-7.77-2,18.6,18.6,0,0,0-10.63,3.18,17.44,17.44,0,0,0-6.76,9.17q-2,6-2,19.89v46.86H579.15Z" transform="translate(-12.8 -210.64)"/><path class="cls-1" d="M802.3,318.11l25.43,4.27q-4.9,14-15.49,21.3T785.77,351q-25.15,0-37.24-16.44Q739,321.38,739,301.31q0-24,12.53-37.55t31.7-13.58q21.53,0,34,14.21t11.9,43.55H765.15q.29,11.35,6.18,17.67A19.31,19.31,0,0,0,786,331.92a15.61,15.61,0,0,0,10.08-3.27Q800.22,325.38,802.3,318.11Zm1.45-25.79q-.27-11.08-5.72-16.85a18.42,18.42,0,0,0-27.06.32q-5.46,6.09-5.36,16.53Z" transform="translate(-12.8 -210.64)"/><circle class="cls-1" cx="148.01" cy="13.78" r="13.78"/><circle class="cls-2" cx="526.09" cy="120.98" r="19.37"/></g></svg>