<svg id="Calque_1" data-name="Calque 1" xmlns="http://www.w3.org/2000/svg" viewBox="0 0 383.7 383.7"><defs><style>.cls-1{fill:#d7492f;}.cls-2{fill:#fff;}</style></defs><title>google</title><g id="ggl"><circle class="cls-1" cx="191.85" cy="191.85" r="191.85"/><path class="cls-2" d="M484.8,159.46l25.07-26.11s-52.22-51.52-118.37-1.74c0,0-51.17,40.39-22.28,107.58,0,0,18.45,48,78.68,50.13,0,0,96.78,7.31,86.34-106.53H450V217.6h48.39S487.94,266.34,431.54,250c0,0-46.3-19.15-31-70,0,0,11.49-30.28,44.57-34.46C445.12,145.54,471.23,143.8,484.8,159.46Z" transform="translate(-305.59 -7.82)"/><polygon class="cls-2" points="282.61 147.81 301.76 147.81 301.76 174.62 328.91 174.62 328.91 193.42 302.45 193.42 302.45 220.57 282.61 220.57 282.61 193.77 256.15 193.77 256.15 174.62 282.61 174.62 282.61 147.81"/></g></svg>