<svg xmlns="http://www.w3.org/2000/svg" viewBox="0 0 421.746 151.132">
  <defs>
    <style>
      .cls-1, .cls-3 {
        fill: #333;
      }

      .cls-2 {
        fill: #6c7cff;
        font-size: 42px;
        font-family: Arial-BoldMT, Arial;
        font-weight: 700;
      }

      .cls-3 {
        font-size: 27px;
        font-family: ArialMT, Arial;
        font-weight: 400;
      }
    </style>
  </defs>
  <g id="Groupe_118" data-name="Groupe 118" transform="translate(-173.254 -1249)">
    <g id="if_Picture3_3289574" transform="translate(168.156 1239.8)">
      <circle id="Ellipse_54" data-name="Ellipse 54" class="cls-1" cx="13.633" cy="13.633" r="13.633" transform="translate(123.709 9.2)"/>
      <circle id="Ellipse_55" data-name="Ellipse 55" class="cls-1" cx="13.633" cy="13.633" r="13.633" transform="translate(26.33 9.2)"/>
      <circle id="Ellipse_56" data-name="Ellipse 56" class="cls-1" cx="13.633" cy="13.633" r="13.633" transform="translate(75.019 9.2)"/>
      <path id="Tracé_45" data-name="Tracé 45" class="cls-1" d="M99.44,71.068l-8.764-32.33a8.124,8.124,0,0,0-1.753-3.116,33.821,33.821,0,0,0-13.438-8.569,32.427,32.427,0,0,0-21.034,0,32.518,32.518,0,0,0-13.438,8.569,9.877,9.877,0,0,0-1.753,3.116L30.5,71.068c-.779,3.116.779,6.622,4.09,7.4a4.288,4.288,0,0,0,1.558.195,6.021,6.021,0,0,0,5.648-4.285l7.79-28.435v99.132H61.268v-55.7h7.79v55.506H80.744V45.944l7.79,28.435a6.021,6.021,0,0,0,5.648,4.285,4.288,4.288,0,0,0,1.558-.195C98.466,77.69,100.219,74.184,99.44,71.068Z" transform="translate(23.879 15.256)"/>
      <path id="Tracé_46" data-name="Tracé 46" class="cls-1" d="M50.285,70.189l8.764-32.33a13.193,13.193,0,0,1,2.337-4.674,32.747,32.747,0,0,0-11.1-6.232,32.427,32.427,0,0,0-21.034,0,32.518,32.518,0,0,0-13.438,8.569,9.877,9.877,0,0,0-1.753,3.116L5.3,71.163c-.779,3.116.779,6.622,4.09,7.4a4.288,4.288,0,0,0,1.558.195,6.021,6.021,0,0,0,5.648-4.285l7.79-28.435v99.132H36.068V89.47h7.79v55.506H55.544v-63.1A10.249,10.249,0,0,1,50.285,70.189Z" transform="translate(0 15.161)"/>
      <path id="Tracé_47" data-name="Tracé 47" class="cls-1" d="M118.185,71.068l-8.959-32.33a8.124,8.124,0,0,0-1.753-3.116,33.821,33.821,0,0,0-13.438-8.569,32.427,32.427,0,0,0-21.034,0,34.7,34.7,0,0,0-11.1,6.232,11.037,11.037,0,0,1,2.337,4.479L73,70.094A10.021,10.021,0,0,1,67.743,81.78v63.3H79.428v-55.7h7.79v55.506H98.9V45.944l7.79,28.435a6.021,6.021,0,0,0,5.648,4.285,4.288,4.288,0,0,0,1.558-.195A6.058,6.058,0,0,0,118.185,71.068Z" transform="translate(53.824 15.256)"/>
    </g>
    <text id="_1_500_inscrits_sur_notre_plateforme" data-name="1 500
inscrits sur notre plateforme" class="cls-2" transform="translate(369 1265)"><tspan x="60.449" y="38">1 500</tspan><tspan class="cls-3"><tspan x="13.971" y="72">inscrits sur notre </tspan><tspan x="49.218" y="103">plateforme</tspan></tspan></text>
  </g>
</svg>
