<svg id="Calque_1" data-name="Calque 1" xmlns="http://www.w3.org/2000/svg" viewBox="0 0 383.18 383.18"><defs><style>.cls-1{fill:#3f9ad5;}.cls-2{fill:#fff;}</style></defs><title>twitter</title><g id="twitter"><circle class="cls-1" cx="191.59" cy="191.59" r="191.59"/><path class="cls-2" d="M295.22,152s19-14.88,23.65-24.64c0,0-16.21,7.11-27.29,7.28,0,0,16.87-10.25,20.84-26.29,0,0-17.53,10.58-30.26,11.57,0,0-25.14-25.79-56.06-10.42,0,0-34.23,16.21-25.8,54.08,0,0-55.26,3.11-99.76-49.89,0,0-21.29,36.54,14.95,64.29,0,0-14.26-.51-21.72-5.91,0,0-.15,38.5,37.64,47.35,0,0-8,4-20.7,1,0,0,9.24,32.37,44.62,33.37,0,0-28.75,25.93-70.76,20.5,0,0,57,37.95,126.11,11,0,0,37-10.09,66.5-58.73C277.18,226.64,297.22,192.85,295.22,152Z" transform="translate(-10.13 -8.24)"/></g></svg>